<svg width="429" height="228" viewBox="0 0 429 228" fill="none" xmlns="http://www.w3.org/2000/svg">
<rect x="55" y="68" width="109" height="109" fill="white"/>
<line x1="0.653385" y1="227.64" x2="236.653" y2="0.63966" stroke="white"/>
<path d="M70.45 133.5V126.6L86.25 104H95.8V126.1H99.9V133.5H95.8V140H87.25V133.5H70.45ZM87.85 113.4L79.45 126.1H87.85V113.4ZM103.188 111.45V103.5H117.038V140H108.138V111.45H103.188ZM149.087 126.35H140.387V135.25H132.287V126.35H123.587V118.7H132.287V109.75H140.387V118.7H149.087V126.35Z" fill="#2F91BB"/>
<path d="M262.85 69.9V105H254.3V83.95L246.45 105H239.55L231.65 83.9V105H223.1V69.9H233.2L243.05 94.2L252.8 69.9H262.85ZM281.698 105.4C278.965 105.4 276.498 104.817 274.298 103.65C272.132 102.483 270.415 100.817 269.148 98.65C267.915 96.4833 267.298 93.95 267.298 91.05C267.298 88.1833 267.932 85.6667 269.198 83.5C270.465 81.3 272.198 79.6167 274.398 78.45C276.598 77.2833 279.065 76.7 281.798 76.7C284.532 76.7 286.998 77.2833 289.198 78.45C291.398 79.6167 293.132 81.3 294.398 83.5C295.665 85.6667 296.298 88.1833 296.298 91.05C296.298 93.9167 295.648 96.45 294.348 98.65C293.082 100.817 291.332 102.483 289.098 103.65C286.898 104.817 284.432 105.4 281.698 105.4ZM281.698 98C283.332 98 284.715 97.4 285.848 96.2C287.015 95 287.598 93.2833 287.598 91.05C287.598 88.8167 287.032 87.1 285.898 85.9C284.798 84.7 283.432 84.1 281.798 84.1C280.132 84.1 278.748 84.7 277.648 85.9C276.548 87.0667 275.998 88.7833 275.998 91.05C275.998 93.2833 276.532 95 277.598 96.2C278.698 97.4 280.065 98 281.698 98ZM299.134 91C299.134 88.1333 299.668 85.6167 300.734 83.45C301.834 81.2833 303.318 79.6167 305.184 78.45C307.051 77.2833 309.134 76.7 311.434 76.7C313.268 76.7 314.934 77.0833 316.434 77.85C317.968 78.6167 319.168 79.65 320.034 80.95V68H328.584V105H320.034V101C319.234 102.333 318.084 103.4 316.584 104.2C315.118 105 313.401 105.4 311.434 105.4C309.134 105.4 307.051 104.817 305.184 103.65C303.318 102.45 301.834 100.767 300.734 98.6C299.668 96.4 299.134 93.8667 299.134 91ZM320.034 91.05C320.034 88.9167 319.434 87.2333 318.234 86C317.068 84.7667 315.634 84.15 313.934 84.15C312.234 84.15 310.784 84.7667 309.584 86C308.418 87.2 307.834 88.8667 307.834 91C307.834 93.1333 308.418 94.8333 309.584 96.1C310.784 97.3333 312.234 97.95 313.934 97.95C315.634 97.95 317.068 97.3333 318.234 96.1C319.434 94.8667 320.034 93.1833 320.034 91.05ZM361.07 90.6C361.07 91.4 361.02 92.2333 360.92 93.1H341.57C341.703 94.8333 342.253 96.1667 343.22 97.1C344.22 98 345.437 98.45 346.87 98.45C349.003 98.45 350.487 97.55 351.32 95.75H360.42C359.953 97.5833 359.103 99.2333 357.87 100.7C356.67 102.167 355.153 103.317 353.32 104.15C351.487 104.983 349.437 105.4 347.17 105.4C344.437 105.4 342.003 104.817 339.87 103.65C337.737 102.483 336.07 100.817 334.87 98.65C333.67 96.4833 333.07 93.95 333.07 91.05C333.07 88.15 333.653 85.6167 334.82 83.45C336.02 81.2833 337.687 79.6167 339.82 78.45C341.953 77.2833 344.403 76.7 347.17 76.7C349.87 76.7 352.27 77.2667 354.37 78.4C356.47 79.5333 358.103 81.15 359.27 83.25C360.47 85.35 361.07 87.8 361.07 90.6ZM352.32 88.35C352.32 86.8833 351.82 85.7167 350.82 84.85C349.82 83.9833 348.57 83.55 347.07 83.55C345.637 83.55 344.42 83.9667 343.42 84.8C342.453 85.6333 341.853 86.8167 341.62 88.35H352.32ZM374.13 81.75C375.13 80.2167 376.38 79.0167 377.88 78.15C379.38 77.25 381.047 76.8 382.88 76.8V85.85H380.53C378.397 85.85 376.797 86.3167 375.73 87.25C374.664 88.15 374.13 89.75 374.13 92.05V105H365.58V77.1H374.13V81.75ZM403.967 76.8C407.234 76.8 409.834 77.8667 411.767 80C413.734 82.1 414.717 85 414.717 88.7V105H406.217V89.85C406.217 87.9833 405.734 86.5333 404.767 85.5C403.801 84.4667 402.501 83.95 400.867 83.95C399.234 83.95 397.934 84.4667 396.967 85.5C396.001 86.5333 395.517 87.9833 395.517 89.85V105H386.967V77.1H395.517V80.8C396.384 79.5667 397.551 78.6 399.017 77.9C400.484 77.1667 402.134 76.8 403.967 76.8ZM234.35 130.05C238.217 130.05 241.533 130.75 244.3 132.15C247.067 133.55 249.183 135.567 250.65 138.2C252.117 140.833 252.85 143.967 252.85 147.6C252.85 151.2 252.117 154.317 250.65 156.95C249.183 159.55 247.067 161.55 244.3 162.95C241.533 164.317 238.217 165 234.35 165H224V130.05H234.35ZM234.35 162.1C239.217 162.1 242.917 160.833 245.45 158.3C248.017 155.733 249.3 152.167 249.3 147.6C249.3 143 248.017 139.417 245.45 136.85C242.917 134.25 239.217 132.95 234.35 132.95H227.5V162.1H234.35ZM284.003 149.95C284.003 151.15 283.969 152.067 283.903 152.7H261.253C261.353 154.767 261.853 156.533 262.753 158C263.653 159.467 264.836 160.583 266.303 161.35C267.769 162.083 269.369 162.45 271.103 162.45C273.369 162.45 275.269 161.9 276.803 160.8C278.369 159.7 279.403 158.217 279.903 156.35H283.603C282.936 159.017 281.503 161.2 279.303 162.9C277.136 164.567 274.403 165.4 271.103 165.4C268.536 165.4 266.236 164.833 264.203 163.7C262.169 162.533 260.569 160.9 259.403 158.8C258.269 156.667 257.703 154.183 257.703 151.35C257.703 148.517 258.269 146.033 259.403 143.9C260.536 141.767 262.119 140.133 264.153 139C266.186 137.867 268.503 137.3 271.103 137.3C273.703 137.3 275.969 137.867 277.903 139C279.869 140.133 281.369 141.667 282.403 143.6C283.469 145.5 284.003 147.617 284.003 149.95ZM280.453 149.85C280.486 147.817 280.069 146.083 279.203 144.65C278.369 143.217 277.219 142.133 275.753 141.4C274.286 140.667 272.686 140.3 270.953 140.3C268.353 140.3 266.136 141.133 264.303 142.8C262.469 144.467 261.453 146.817 261.253 149.85H280.453ZM299.806 165.4C296.673 165.4 294.106 164.683 292.106 163.25C290.14 161.783 289.04 159.8 288.806 157.3H292.406C292.573 158.833 293.29 160.083 294.556 161.05C295.856 161.983 297.59 162.45 299.756 162.45C301.656 162.45 303.14 162 304.206 161.1C305.306 160.2 305.856 159.083 305.856 157.75C305.856 156.817 305.556 156.05 304.956 155.45C304.356 154.85 303.59 154.383 302.656 154.05C301.756 153.683 300.523 153.3 298.956 152.9C296.923 152.367 295.273 151.833 294.006 151.3C292.74 150.767 291.656 149.983 290.756 148.95C289.89 147.883 289.456 146.467 289.456 144.7C289.456 143.367 289.856 142.133 290.656 141C291.456 139.867 292.59 138.967 294.056 138.3C295.523 137.633 297.19 137.3 299.056 137.3C301.99 137.3 304.356 138.05 306.156 139.55C307.956 141.017 308.923 143.05 309.056 145.65H305.556C305.456 144.05 304.823 142.767 303.656 141.8C302.523 140.8 300.956 140.3 298.956 140.3C297.19 140.3 295.756 140.717 294.656 141.55C293.556 142.383 293.006 143.417 293.006 144.65C293.006 145.717 293.323 146.6 293.956 147.3C294.623 147.967 295.44 148.5 296.406 148.9C297.373 149.267 298.673 149.683 300.306 150.15C302.273 150.683 303.84 151.2 305.006 151.7C306.173 152.2 307.173 152.933 308.006 153.9C308.84 154.867 309.273 156.15 309.306 157.75C309.306 159.217 308.906 160.533 308.106 161.7C307.306 162.833 306.19 163.733 304.756 164.4C303.323 165.067 301.673 165.4 299.806 165.4ZM317.645 132.55C316.945 132.55 316.345 132.3 315.845 131.8C315.345 131.3 315.095 130.683 315.095 129.95C315.095 129.217 315.345 128.617 315.845 128.15C316.345 127.65 316.945 127.4 317.645 127.4C318.345 127.4 318.945 127.65 319.445 128.15C319.945 128.617 320.195 129.217 320.195 129.95C320.195 130.683 319.945 131.3 319.445 131.8C318.945 132.3 318.345 132.55 317.645 132.55ZM319.395 137.7V165H315.895V137.7H319.395ZM338.77 137.3C341.337 137.3 343.57 137.9 345.47 139.1C347.37 140.3 348.737 141.817 349.57 143.65V137.7H353.07V165.7C353.07 168.2 352.52 170.417 351.42 172.35C350.354 174.283 348.854 175.767 346.92 176.8C344.987 177.867 342.787 178.4 340.32 178.4C336.82 178.4 333.904 177.567 331.57 175.9C329.27 174.233 327.837 171.967 327.27 169.1H330.72C331.32 171 332.454 172.517 334.12 173.65C335.82 174.783 337.887 175.35 340.32 175.35C342.087 175.35 343.67 174.967 345.07 174.2C346.47 173.467 347.57 172.367 348.37 170.9C349.17 169.433 349.57 167.7 349.57 165.7V158.95C348.704 160.817 347.32 162.367 345.42 163.6C343.554 164.8 341.337 165.4 338.77 165.4C336.27 165.4 334.02 164.817 332.02 163.65C330.054 162.483 328.504 160.833 327.37 158.7C326.27 156.567 325.72 154.1 325.72 151.3C325.72 148.5 326.27 146.05 327.37 143.95C328.504 141.817 330.054 140.183 332.02 139.05C334.02 137.883 336.27 137.3 338.77 137.3ZM349.57 151.35C349.57 149.15 349.12 147.217 348.22 145.55C347.32 143.883 346.087 142.6 344.52 141.7C342.987 140.8 341.287 140.35 339.42 140.35C337.487 140.35 335.754 140.783 334.22 141.65C332.687 142.517 331.47 143.783 330.57 145.45C329.704 147.083 329.27 149.033 329.27 151.3C329.27 153.533 329.704 155.5 330.57 157.2C331.47 158.867 332.687 160.15 334.22 161.05C335.754 161.917 337.487 162.35 339.42 162.35C341.287 162.35 342.987 161.9 344.52 161C346.087 160.1 347.32 158.817 348.22 157.15C349.12 155.483 349.57 153.55 349.57 151.35ZM373.861 137.2C377.127 137.2 379.794 138.217 381.861 140.25C383.927 142.25 384.961 145.167 384.961 149V165H381.511V149.4C381.511 146.433 380.761 144.167 379.261 142.6C377.794 141.033 375.777 140.25 373.211 140.25C370.577 140.25 368.477 141.083 366.911 142.75C365.344 144.417 364.561 146.867 364.561 150.1V165H361.061V137.7H364.561V142.35C365.427 140.683 366.677 139.417 368.311 138.55C369.944 137.65 371.794 137.2 373.861 137.2Z" fill="white"/>
</svg>
